<svg width="101" height="65" viewBox="0 0 101 65" fill="none" xmlns="http://www.w3.org/2000/svg">
<g filter="url(#filter0_d_302_42)">
<path d="M50.9998 0.617188V23.0241" stroke="white" stroke-width="2"/>
<path d="M58.7156 15.5268L51 23.0234L43.2844 15.5268" stroke="white" stroke-width="2"/>
</g>
<g filter="url(#filter1_d_302_42)">
<path d="M10.74 46.3439C10.22 45.6106 9.56 45.2439 8.76 45.2439C8.25333 45.2439 7.82667 45.3973 7.48 45.7039C7.13333 46.0106 6.96 46.4239 6.96 46.9439C6.96 47.4506 7.58667 48.0573 8.84 48.7639C10.1067 49.4706 10.7467 49.8239 10.76 49.8239C11.6533 50.4906 12.1 51.2773 12.1 52.1839C12.1 53.4239 11.74 54.4306 11.02 55.2039C10.3133 55.9639 9.34 56.3439 8.1 56.3439C6.52667 56.3439 5.28667 55.5573 4.38 53.9839L5.68 52.7039C5.85333 53.1706 6.17333 53.5973 6.64 53.9839C7.10667 54.3706 7.58667 54.5639 8.08 54.5639C8.66667 54.5639 9.12667 54.3639 9.46 53.9639C9.80667 53.5639 9.98 53.0773 9.98 52.5039C9.98 52.0906 9.85333 51.7306 9.6 51.4239C9.34667 51.1039 8.48667 50.6239 7.02 49.9839C5.56667 49.3306 4.84 48.4039 4.84 47.2039C4.84 46.1773 5.17333 45.3173 5.84 44.6239C6.52 43.9173 7.36667 43.5639 8.38 43.5639C9.78 43.5639 10.8867 44.0173 11.7 44.9239L10.74 46.3439ZM19.637 50.1839C19.1437 49.6906 18.5904 49.4439 17.977 49.4439C17.257 49.4439 16.6904 49.7039 16.277 50.2239C15.8637 50.7439 15.657 51.3839 15.657 52.1439C15.657 52.8906 15.8904 53.5039 16.357 53.9839C16.8237 54.4639 17.3904 54.7039 18.057 54.7039C18.6304 54.7039 19.157 54.4506 19.637 53.9439V55.8039C19.077 56.1239 18.4304 56.2839 17.697 56.2839C16.5504 56.2839 15.597 55.8773 14.837 55.0639C14.077 54.2506 13.697 53.2573 13.697 52.0839C13.697 50.9106 14.0837 49.9173 14.857 49.1039C15.6437 48.2773 16.6237 47.8639 17.797 47.8639C18.4904 47.8639 19.1037 48.0306 19.637 48.3639V50.1839ZM23.9744 48.9439C24.4677 48.2239 25.241 47.8639 26.2944 47.8639C26.6277 47.8639 26.9344 47.9306 27.2144 48.0639L26.9744 49.8239C26.681 49.6373 26.361 49.5439 26.0144 49.5439C24.6544 49.5439 23.9744 50.5173 23.9744 52.4639V56.0239H22.0344V48.1239H23.9744V48.9439ZM36.6928 52.0639C36.6928 53.3039 36.3128 54.3173 35.5528 55.1039C34.7928 55.8906 33.7928 56.2839 32.5528 56.2839C31.3261 56.2839 30.3261 55.8906 29.5528 55.1039C28.7795 54.3173 28.3928 53.3106 28.3928 52.0839C28.3928 50.8439 28.7728 49.8306 29.5328 49.0439C30.2928 48.2573 31.2928 47.8639 32.5328 47.8639C33.7728 47.8639 34.7728 48.2573 35.5328 49.0439C36.3061 49.8173 36.6928 50.8239 36.6928 52.0639ZM30.3528 52.1039C30.3528 52.8373 30.5595 53.4373 30.9728 53.9039C31.3861 54.3706 31.9195 54.6039 32.5728 54.6039C33.2261 54.6039 33.7461 54.3573 34.1328 53.8639C34.5328 53.3573 34.7328 52.7639 34.7328 52.0839C34.7328 51.3906 34.5328 50.7973 34.1328 50.3039C33.7328 49.7973 33.2061 49.5439 32.5528 49.5439C31.9128 49.5439 31.3861 49.7839 30.9728 50.2639C30.5595 50.7439 30.3528 51.3573 30.3528 52.1039ZM40.8609 56.0239H38.9209V42.3639H40.8609V56.0239ZM45.7086 56.0239H43.7686V42.3639H45.7086V56.0239ZM61.6959 55.2839C61.1759 55.9506 60.3559 56.2839 59.2359 56.2839C58.1159 56.2839 57.2226 55.8573 56.5559 55.0039C55.9026 54.1506 55.5759 53.1506 55.5759 52.0039C55.5759 50.8573 55.9093 49.8839 56.5759 49.0839C57.2559 48.2706 58.1226 47.8639 59.1759 47.8639C60.2959 47.8639 61.1226 48.1906 61.6559 48.8439L61.6959 42.3639H63.6359V56.0239H61.6959V55.2839ZM61.9159 52.0639C61.9159 51.3706 61.7026 50.7773 61.2759 50.2839C60.8493 49.7906 60.3359 49.5439 59.7359 49.5439C59.1359 49.5439 58.6159 49.7906 58.1759 50.2839C57.7493 50.7639 57.5359 51.3639 57.5359 52.0839C57.5359 52.7906 57.7426 53.3906 58.1559 53.8839C58.5826 54.3639 59.1159 54.6039 59.7559 54.6039C60.3959 54.6039 60.9159 54.3706 61.3159 53.9039C61.7159 53.4239 61.9159 52.8106 61.9159 52.0639ZM73.9975 52.0639C73.9975 53.3039 73.6175 54.3173 72.8575 55.1039C72.0975 55.8906 71.0975 56.2839 69.8575 56.2839C68.6308 56.2839 67.6308 55.8906 66.8575 55.1039C66.0842 54.3173 65.6975 53.3106 65.6975 52.0839C65.6975 50.8439 66.0775 49.8306 66.8375 49.0439C67.5975 48.2573 68.5975 47.8639 69.8375 47.8639C71.0775 47.8639 72.0775 48.2573 72.8375 49.0439C73.6108 49.8173 73.9975 50.8239 73.9975 52.0639ZM67.6575 52.1039C67.6575 52.8373 67.8642 53.4373 68.2775 53.9039C68.6908 54.3706 69.2242 54.6039 69.8775 54.6039C70.5308 54.6039 71.0508 54.3573 71.4375 53.8639C71.8375 53.3573 72.0375 52.7639 72.0375 52.0839C72.0375 51.3906 71.8375 50.7973 71.4375 50.3039C71.0375 49.7973 70.5108 49.5439 69.8575 49.5439C69.2175 49.5439 68.6908 49.7839 68.2775 50.2639C67.8642 50.7439 67.6575 51.3573 67.6575 52.1039ZM79.0656 53.2839L81.1656 47.8639H81.8656L84.0656 53.2639L86.0256 48.1239H88.1656L84.4856 56.1839H83.5056L81.6856 51.1239L79.6056 56.1839H78.6056L74.9856 48.1239H77.1256L79.0656 53.2839ZM91.6033 48.8439C92.1499 48.1906 92.9566 47.8639 94.0233 47.8639C95.8366 47.8639 96.7433 48.9773 96.7433 51.2039V56.0239H94.8233V51.8439C94.8233 50.1773 94.3099 49.3439 93.2833 49.3439C92.1633 49.3439 91.6033 50.2373 91.6033 52.0239V56.0239H89.6633V48.1239H91.6033V48.8439Z" fill="white"/>
</g>
<defs>
<filter id="filter0_d_302_42" x="38.5875" y="0.617188" width="24.825" height="31.8008" filterUnits="userSpaceOnUse" color-interpolation-filters="sRGB">
<feFlood flood-opacity="0" result="BackgroundImageFix"/>
<feColorMatrix in="SourceAlpha" type="matrix" values="0 0 0 0 0 0 0 0 0 0 0 0 0 0 0 0 0 0 127 0" result="hardAlpha"/>
<feOffset dy="4"/>
<feGaussianBlur stdDeviation="2"/>
<feComposite in2="hardAlpha" operator="out"/>
<feColorMatrix type="matrix" values="0 0 0 0 0 0 0 0 0 0 0 0 0 0 0 0 0 0 0.25 0"/>
<feBlend mode="normal" in2="BackgroundImageFix" result="effect1_dropShadow_302_42"/>
<feBlend mode="normal" in="SourceGraphic" in2="effect1_dropShadow_302_42" result="shape"/>
</filter>
<filter id="filter1_d_302_42" x="0.380005" y="42.3638" width="100.363" height="21.98" filterUnits="userSpaceOnUse" color-interpolation-filters="sRGB">
<feFlood flood-opacity="0" result="BackgroundImageFix"/>
<feColorMatrix in="SourceAlpha" type="matrix" values="0 0 0 0 0 0 0 0 0 0 0 0 0 0 0 0 0 0 127 0" result="hardAlpha"/>
<feOffset dy="4"/>
<feGaussianBlur stdDeviation="2"/>
<feComposite in2="hardAlpha" operator="out"/>
<feColorMatrix type="matrix" values="0 0 0 0 0 0 0 0 0 0 0 0 0 0 0 0 0 0 0.25 0"/>
<feBlend mode="normal" in2="BackgroundImageFix" result="effect1_dropShadow_302_42"/>
<feBlend mode="normal" in="SourceGraphic" in2="effect1_dropShadow_302_42" result="shape"/>
</filter>
</defs>
</svg>
