<svg width="94" height="60" viewBox="0 0 94 60" fill="none" xmlns="http://www.w3.org/2000/svg">
<path d="M46.9998 0.617188V23.0241" stroke="white"/>
<path d="M54.7156 15.5268L47 23.0234L39.2844 15.5268" stroke="white"/>
<path d="M6.74 46.3441C6.22 45.6108 5.56 45.2441 4.76 45.2441C4.25333 45.2441 3.82667 45.3975 3.48 45.7041C3.13333 46.0108 2.96 46.4241 2.96 46.9441C2.96 47.4508 3.58667 48.0575 4.84 48.7641C6.10667 49.4708 6.74667 49.8241 6.76 49.8241C7.65333 50.4908 8.1 51.2775 8.1 52.1841C8.1 53.4241 7.74 54.4308 7.02 55.2041C6.31333 55.9641 5.34 56.3441 4.1 56.3441C2.52667 56.3441 1.28667 55.5575 0.38 53.9841L1.68 52.7041C1.85333 53.1708 2.17333 53.5975 2.64 53.9841C3.10667 54.3708 3.58667 54.5641 4.08 54.5641C4.66667 54.5641 5.12667 54.3641 5.46 53.9641C5.80667 53.5641 5.98 53.0775 5.98 52.5041C5.98 52.0908 5.85333 51.7308 5.6 51.4241C5.34667 51.1041 4.48667 50.6241 3.02 49.9841C1.56667 49.3308 0.84 48.4041 0.84 47.2041C0.84 46.1775 1.17333 45.3175 1.84 44.6241C2.52 43.9175 3.36667 43.5641 4.38 43.5641C5.78 43.5641 6.88667 44.0175 7.7 44.9241L6.74 46.3441ZM15.637 50.1841C15.1437 49.6908 14.5904 49.4441 13.977 49.4441C13.257 49.4441 12.6904 49.7041 12.277 50.2241C11.8637 50.7441 11.657 51.3841 11.657 52.1441C11.657 52.8908 11.8904 53.5041 12.357 53.9841C12.8237 54.4641 13.3904 54.7041 14.057 54.7041C14.6304 54.7041 15.157 54.4508 15.637 53.9441V55.8041C15.077 56.1241 14.4304 56.2841 13.697 56.2841C12.5504 56.2841 11.597 55.8775 10.837 55.0641C10.077 54.2508 9.69703 53.2575 9.69703 52.0841C9.69703 50.9108 10.0837 49.9175 10.857 49.1041C11.6437 48.2775 12.6237 47.8641 13.797 47.8641C14.4904 47.8641 15.1037 48.0308 15.637 48.3641V50.1841ZM19.9744 48.9441C20.4677 48.2241 21.241 47.8641 22.2944 47.8641C22.6277 47.8641 22.9344 47.9308 23.2144 48.0641L22.9744 49.8241C22.681 49.6375 22.361 49.5441 22.0144 49.5441C20.6544 49.5441 19.9744 50.5175 19.9744 52.4641V56.0241H18.0344V48.1241H19.9744V48.9441ZM32.6928 52.0641C32.6928 53.3041 32.3128 54.3175 31.5528 55.1041C30.7928 55.8908 29.7928 56.2841 28.5528 56.2841C27.3261 56.2841 26.3261 55.8908 25.5528 55.1041C24.7795 54.3175 24.3928 53.3108 24.3928 52.0841C24.3928 50.8441 24.7728 49.8308 25.5328 49.0441C26.2928 48.2575 27.2928 47.8641 28.5328 47.8641C29.7728 47.8641 30.7728 48.2575 31.5328 49.0441C32.3061 49.8175 32.6928 50.8241 32.6928 52.0641ZM26.3528 52.1041C26.3528 52.8375 26.5595 53.4375 26.9728 53.9041C27.3861 54.3708 27.9195 54.6041 28.5728 54.6041C29.2261 54.6041 29.7461 54.3575 30.1328 53.8641C30.5328 53.3575 30.7328 52.7641 30.7328 52.0841C30.7328 51.3908 30.5328 50.7975 30.1328 50.3041C29.7328 49.7975 29.2061 49.5441 28.5528 49.5441C27.9128 49.5441 27.3861 49.7841 26.9728 50.2641C26.5595 50.7441 26.3528 51.3575 26.3528 52.1041ZM36.8609 56.0241H34.9209V42.3641H36.8609V56.0241ZM41.7086 56.0241H39.7686V42.3641H41.7086V56.0241ZM57.6959 55.2841C57.1759 55.9508 56.3559 56.2841 55.2359 56.2841C54.1159 56.2841 53.2226 55.8575 52.5559 55.0041C51.9026 54.1508 51.5759 53.1508 51.5759 52.0041C51.5759 50.8575 51.9093 49.8841 52.5759 49.0841C53.2559 48.2708 54.1226 47.8641 55.1759 47.8641C56.2959 47.8641 57.1226 48.1908 57.6559 48.8441L57.6959 42.3641H59.6359V56.0241H57.6959V55.2841ZM57.9159 52.0641C57.9159 51.3708 57.7026 50.7775 57.2759 50.2841C56.8493 49.7908 56.3359 49.5441 55.7359 49.5441C55.1359 49.5441 54.6159 49.7908 54.1759 50.2841C53.7493 50.7641 53.5359 51.3641 53.5359 52.0841C53.5359 52.7908 53.7426 53.3908 54.1559 53.8841C54.5826 54.3641 55.1159 54.6041 55.7559 54.6041C56.3959 54.6041 56.9159 54.3708 57.3159 53.9041C57.7159 53.4241 57.9159 52.8108 57.9159 52.0641ZM69.9975 52.0641C69.9975 53.3041 69.6175 54.3175 68.8575 55.1041C68.0975 55.8908 67.0975 56.2841 65.8575 56.2841C64.6308 56.2841 63.6308 55.8908 62.8575 55.1041C62.0842 54.3175 61.6975 53.3108 61.6975 52.0841C61.6975 50.8441 62.0775 49.8308 62.8375 49.0441C63.5975 48.2575 64.5975 47.8641 65.8375 47.8641C67.0775 47.8641 68.0775 48.2575 68.8375 49.0441C69.6108 49.8175 69.9975 50.8241 69.9975 52.0641ZM63.6575 52.1041C63.6575 52.8375 63.8642 53.4375 64.2775 53.9041C64.6908 54.3708 65.2242 54.6041 65.8775 54.6041C66.5308 54.6041 67.0508 54.3575 67.4375 53.8641C67.8375 53.3575 68.0375 52.7641 68.0375 52.0841C68.0375 51.3908 67.8375 50.7975 67.4375 50.3041C67.0375 49.7975 66.5108 49.5441 65.8575 49.5441C65.2175 49.5441 64.6908 49.7841 64.2775 50.2641C63.8642 50.7441 63.6575 51.3575 63.6575 52.1041ZM75.0656 53.2841L77.1656 47.8641H77.8656L80.0656 53.2641L82.0256 48.1241H84.1656L80.4856 56.1841H79.5056L77.6856 51.1241L75.6056 56.1841H74.6056L70.9856 48.1241H73.1256L75.0656 53.2841ZM87.6033 48.8441C88.1499 48.1908 88.9566 47.8641 90.0233 47.8641C91.8366 47.8641 92.7433 48.9775 92.7433 51.2041V56.0241H90.8233V51.8441C90.8233 50.1775 90.3099 49.3441 89.2833 49.3441C88.1633 49.3441 87.6033 50.2375 87.6033 52.0241V56.0241H85.6633V48.1241H87.6033V48.8441Z" fill="white"/>
</svg>
