<svg width="164" height="39" viewBox="0 0 164 39" fill="none" xmlns="http://www.w3.org/2000/svg">
<path d="M24.6328 22.2266C24.2422 21.5078 23.6562 20.8594 22.875 20.2812C22.0938 19.7031 21.2109 19.2422 20.2266 18.8984C19.2578 18.5391 18.2422 18.2734 17.1797 18.1016C14.0234 17.6328 11.0781 16.6094 8.34375 15.0312C8.10938 14.9062 7.85938 14.6406 7.59375 14.2344C7.32812 13.8281 7.19531 13.4375 7.19531 13.0625C7.19531 11.6875 7.42188 10.3125 7.875 8.9375C8.34375 7.54688 8.9375 6.46094 9.65625 5.67969C10.8125 4.38281 12.8906 3.25 15.8906 2.28125C18.9062 1.3125 22.2969 0.828125 26.0625 0.828125C28.3125 0.828125 30.0469 1 31.2656 1.34375C32.5 1.6875 33.1172 2.21875 33.1172 2.9375C33.1172 4.10938 32.9531 5.01562 32.625 5.65625C32.3125 6.29688 31.9688 6.72656 31.5938 6.94531C31.2344 7.14844 30.5938 7.42969 29.6719 7.78906C28.6875 8.13281 27.8281 8.49219 27.0938 8.86719C26.375 9.24219 25.7578 9.60156 25.2422 9.94531C24.7266 10.2891 24.4062 10.4609 24.2812 10.4609C24.125 10.4609 24.0469 10.3984 24.0469 10.2734C24.0469 10.0078 24.3203 9.60938 24.8672 9.07812C25.4297 8.53125 26.1172 8.05469 26.9297 7.64844C27.7891 7.19531 28.2188 6.90625 28.2188 6.78125C28.2188 6.57812 27.7422 6.47656 26.7891 6.47656C23.8984 6.47656 21.2266 6.73438 18.7734 7.25C16.3203 7.76562 14.3828 8.44531 12.9609 9.28906C11.5547 10.1328 10.8516 10.9922 10.8516 11.8672C10.8516 12.4141 11.1406 12.8047 11.7188 13.0391C12.3125 13.2578 13.6094 13.6328 15.6094 14.1641C17.6094 14.6953 19.3984 15.3047 20.9766 15.9922C23.2422 16.9609 24.9219 17.9688 26.0156 19.0156C27.1094 20.0625 27.6562 21.2344 27.6562 22.5312C27.6562 23.4219 27.4375 24.3203 27 25.2266C26.5781 26.1172 25.9531 26.9375 25.125 27.6875C24.2969 28.4375 23.3438 29.0547 22.2656 29.5391C21.3438 29.9297 20.1797 30.2969 18.7734 30.6406C17.3828 30.9844 15.8672 31.25 14.2266 31.4375C12.6016 31.6406 11.0469 31.7422 9.5625 31.7422C6.82812 31.7422 4.625 31.4844 2.95312 30.9688C1.29688 30.4531 0.46875 29.6719 0.46875 28.625C0.46875 28.1562 0.75 27.4297 1.3125 26.4453C1.875 25.4453 2.53906 24.7734 3.30469 24.4297C3.97656 24.1641 4.625 24.0156 5.25 23.9844C5.875 23.9375 6.1875 24.0078 6.1875 24.1953C6.1875 24.2422 6.16406 24.2891 6.11719 24.3359C6.07031 24.3828 6.01562 24.4219 5.95312 24.4531C5.89062 24.4844 5.82812 24.5156 5.76562 24.5469C5.45312 24.6719 5.19531 24.7734 4.99219 24.8516C4.80469 24.9141 4.64844 24.9844 4.52344 25.0625C4.41406 25.125 4.35938 25.2188 4.35938 25.3438C4.35938 25.6719 5.97656 25.8359 9.21094 25.8359C12.0234 25.8359 14.3281 25.7344 16.125 25.5312C17.9219 25.3281 19.5078 24.9609 20.8828 24.4297C22.2578 23.8984 23.5078 23.1641 24.6328 22.2266ZM33.525 23.5859V21.9453C35.7125 19.5703 37.5953 17.3359 39.1734 15.2422C40.7672 13.1484 42.025 11.4844 42.9469 10.25C43.8688 9.01562 44.6813 8.14844 45.3844 7.64844C46.0875 7.13281 46.9703 6.875 48.0328 6.875C48.5641 6.875 48.8297 7.07812 48.8297 7.48438C48.8297 7.8125 48.6109 8.29688 48.1734 8.9375C47.7516 9.57812 47.2047 10.2344 46.5328 10.9062C45.6422 11.7812 44.7672 12.8828 43.9078 14.2109C43.0641 15.5234 42.1031 17.2031 41.025 19.25C41.8688 18.5938 42.8375 17.8203 43.9313 16.9297C45.0406 16.0234 45.9391 15.3203 46.6266 14.8203C47.3297 14.3047 48.0172 13.8984 48.6891 13.6016C49.3766 13.3047 50.0641 13.1562 50.7516 13.1562C51.1891 13.1562 51.4703 13.2344 51.5953 13.3906C51.7359 13.5469 51.8063 13.8516 51.8063 14.3047C51.8063 15.4922 51.5172 16.6562 50.9391 17.7969C50.3609 18.9219 49.5328 20.0938 48.4547 21.3125C47.3766 22.5312 46.0484 23.8594 44.4703 25.2969C45.0172 25.5 45.5797 25.6016 46.1578 25.6016C47.9703 25.6016 50.4 24.2188 53.4469 21.4531V23.1406C52.2594 24.2031 51.0953 25.2031 49.9547 26.1406C48.8297 27.0781 47.7672 27.8281 46.7672 28.3906C45.7672 28.9531 44.8453 29.2344 44.0016 29.2344C43.6891 29.2344 43.3531 29.1953 42.9938 29.1172C42.65 29.0547 42.3297 28.9766 42.0328 28.8828C41.7359 28.7734 41.3531 28.625 40.8844 28.4375C40.4156 28.25 40.0563 28.1172 39.8063 28.0391C39.3063 28.1641 39.025 28.2266 38.9625 28.2266C38.4156 28.2266 37.775 28.0078 37.0406 27.5703C36.525 28.5703 35.9547 29.8594 35.3297 31.4375C34.7203 33.0312 34.2047 34.2969 33.7828 35.2344C33.3609 36.1719 32.7984 37.0703 32.0953 37.9297C31.7047 38.3203 31.4313 38.5156 31.275 38.5156C30.6031 38.5156 30.2672 37.9219 30.2672 36.7344C30.2672 35.7031 30.4781 34.625 30.9 33.5C31.3063 32.3906 31.8141 31.3359 32.4234 30.3359C33.0172 29.3359 33.6734 28.3281 34.3922 27.3125C35.1109 26.2812 35.6188 25.5156 35.9156 25.0156C38.3844 20.7656 40.3063 17.1484 41.6813 14.1641C38.0875 18.5391 35.3688 21.6797 33.525 23.5859ZM43.0406 24.7344C44.5875 23.1094 45.7359 21.7266 46.4859 20.5859C47.2516 19.4453 47.6344 18.5703 47.6344 17.9609C47.6344 17.3828 47.3453 17.0938 46.7672 17.0938C45.9859 17.0938 44.8844 17.7422 43.4625 19.0391C42.0563 20.3203 40.6031 22.0547 39.1031 24.2422C40.2594 24.1172 41.0328 24.0781 41.4234 24.125C41.8141 24.1562 42.3531 24.3594 43.0406 24.7344ZM66.9094 21.3594V23.0938C63.6437 27.4219 60.9875 29.5859 58.9406 29.5859C57.8312 29.5859 56.9562 28.9844 56.3156 27.7812C55.6906 26.5625 55.3781 24.9688 55.3781 23C55.3781 21.4062 55.7531 19.5156 56.5031 17.3281C57.2531 15.125 58.2531 12.8984 59.5031 10.6484C60.7687 8.38281 62.0734 6.41406 63.4172 4.74219C64.7766 3.05469 66.0344 1.875 67.1906 1.20312C67.6594 0.921875 68.0266 0.78125 68.2922 0.78125C68.6203 0.78125 68.8391 0.929687 68.9484 1.22656C69.0578 1.50781 69.1125 2 69.1125 2.70312C69.1125 4.875 68.2297 7.54688 66.4641 10.7188C64.6984 13.875 62.2375 17.1016 59.0812 20.3984C58.925 21.2109 58.8469 21.8359 58.8469 22.2734C58.8469 23.2734 59.0578 24.0859 59.4797 24.7109C59.9172 25.3359 60.5187 25.6484 61.2844 25.6484C61.675 25.6484 62.0969 25.5 62.55 25.2031C63.0031 24.8906 63.4797 24.5078 63.9797 24.0547C64.4797 23.6016 65.4562 22.7031 66.9094 21.3594ZM59.9016 17.1406C60.7141 16.3438 61.4953 15.4375 62.2453 14.4219C63.0109 13.4062 63.7297 12.3203 64.4016 11.1641C65.0734 10.0078 65.5969 8.96875 65.9719 8.04688C66.3625 7.125 66.5578 6.42969 66.5578 5.96094C66.5578 5.60156 66.4328 5.42188 66.1828 5.42188C66.0891 5.42188 65.9094 5.50781 65.6437 5.67969C64.6906 6.46094 63.6203 7.99219 62.4328 10.2734C61.2453 12.5391 60.4016 14.8281 59.9016 17.1406ZM72.8719 22.4609V23.0469C72.8719 23.9688 73.0984 24.6875 73.5516 25.2031C74.0047 25.7188 74.5984 25.9766 75.3328 25.9766C76.0984 25.9766 76.8875 25.7969 77.7 25.4375C78.5281 25.0781 79.3484 24.6016 80.1609 24.0078C80.9734 23.4141 81.9656 22.6172 83.1375 21.6172V23.0469C81.3719 25.1719 79.7156 26.8047 78.1687 27.9453C76.6219 29.0703 75.0516 29.6328 73.4578 29.6328C72.0672 29.6328 70.9656 29.0938 70.1531 28.0156C69.3406 26.9375 68.9344 25.4609 68.9344 23.5859C68.9344 21.9453 69.3172 20.4609 70.0828 19.1328C70.8484 17.7891 72.0984 16.375 73.8328 14.8906C75.0203 13.875 76.2 13.1094 77.3719 12.5938C78.5437 12.0781 79.5906 11.8203 80.5125 11.8203C81.2469 11.8203 81.825 11.9922 82.2469 12.3359C82.6844 12.6641 82.9031 13.1641 82.9031 13.8359C82.9031 14.8203 82.5359 15.8047 81.8016 16.7891C81.0672 17.7578 79.9422 18.7266 78.4266 19.6953C76.9266 20.6484 75.075 21.5703 72.8719 22.4609ZM73.1062 20.9375C74.5125 20.3906 75.7156 19.7109 76.7156 18.8984C77.7156 18.0859 78.45 17.3125 78.9187 16.5781C79.4031 15.8281 79.6453 15.2812 79.6453 14.9375C79.6453 14.5781 79.4812 14.3984 79.1531 14.3984C78.8719 14.3984 78.4109 14.5781 77.7703 14.9375C77.1453 15.2969 76.5047 15.7656 75.8484 16.3438C75.2078 16.9219 74.6297 17.6016 74.1141 18.3828C73.5984 19.1641 73.2625 20.0156 73.1062 20.9375ZM101.334 17.375C98.5844 20.4375 97.2094 22.5703 97.2094 23.7734C97.2094 24.4453 97.4828 24.7812 98.0297 24.7812C98.4828 24.7812 99.0687 24.5469 99.7875 24.0781C100.522 23.5938 101.662 22.7422 103.209 21.5234V23.1406C100.991 25.3281 99.2875 26.9062 98.1 27.875C96.9125 28.8438 95.9437 29.3281 95.1937 29.3281C93.9125 29.3281 93.2719 28.4844 93.2719 26.7969C93.2719 26.2969 93.35 25.8047 93.5062 25.3203C93.6625 24.8359 93.8734 24.3359 94.1391 23.8203C94.4203 23.2891 94.8422 22.5391 95.4047 21.5703C95.9672 20.5859 96.6156 19.4766 97.35 18.2422C96.4594 18.6953 95.3422 19.5938 93.9984 20.9375C93.1234 21.7812 92.3812 22.5859 91.7719 23.3516C91.1625 24.1016 90.5062 24.9453 89.8031 25.8828C89.1156 26.8047 88.6078 27.4297 88.2797 27.7578C87.9672 28.0703 87.6469 28.2266 87.3187 28.2266C86.8187 28.2266 86.3578 27.7031 85.9359 26.6562C85.5141 25.6094 85.3031 24.3906 85.3031 23C85.3031 22.1406 85.3969 21.4688 85.5844 20.9844C85.7875 20.5 86.1781 19.8125 86.7562 18.9219C87.8344 17.2656 88.7641 16.0547 89.5453 15.2891C90.3266 14.5078 91.0766 14.1172 91.7953 14.1172C92.2953 14.1172 92.6937 14.2031 92.9906 14.375C93.3031 14.5469 93.4594 14.8125 93.4594 15.1719C93.4594 15.3281 93.4125 15.4922 93.3187 15.6641C93.225 15.8359 93.1156 15.9922 92.9906 16.1328C92.8812 16.2734 92.6391 16.5469 92.2641 16.9531C89.7953 19.6875 88.5609 21.4609 88.5609 22.2734C88.5609 22.7266 88.7094 22.9531 89.0062 22.9531C89.1937 22.9531 89.5531 22.6562 90.0844 22.0625C90.6312 21.4531 91.3266 20.6641 92.1703 19.6953C93.0297 18.7109 94.0375 17.6875 95.1937 16.625C96.3656 15.5625 97.6937 14.5391 99.1781 13.5547C100.006 12.9766 100.694 12.6875 101.241 12.6875C101.491 12.6875 101.733 13.0312 101.967 13.7188C102.217 14.4062 102.342 15.1016 102.342 15.8047C102.342 16.1484 102.006 16.6719 101.334 17.375ZM116.18 21.6641C114.805 23.2266 113.57 24.5547 112.477 25.6484C111.398 26.7422 110.516 27.5625 109.828 28.1094C109.156 28.6406 108.695 28.9062 108.445 28.9062C108.039 28.9062 107.578 28.5781 107.062 27.9219C106.562 27.2656 106.133 26.4297 105.773 25.4141C105.414 24.3984 105.234 23.3672 105.234 22.3203C105.234 20.8047 105.969 19.2812 107.438 17.75C108.906 16.2031 110.578 14.9219 112.453 13.9062C114.328 12.8906 115.734 12.3828 116.672 12.3828C117.438 12.3828 118.188 12.8672 118.922 13.8359C120.125 11.3203 121.266 9.08594 122.344 7.13281C123.438 5.17969 124.352 3.72656 125.086 2.77344C125.82 1.82031 126.344 1.34375 126.656 1.34375C127 1.34375 127.312 1.51562 127.594 1.85938C127.891 2.1875 128.039 2.5625 128.039 2.98438C128.039 3.79688 127.445 5.19531 126.258 7.17969C125.07 9.14844 123.898 11.0703 122.742 12.9453C121.586 14.8203 120.594 16.6719 119.766 18.5C118.938 20.3125 118.523 21.9922 118.523 23.5391C118.523 24.9453 118.977 25.6484 119.883 25.6484C120.43 25.6484 121.117 25.3438 121.945 24.7344C122.773 24.1094 123.953 23.0703 125.484 21.6172V23.3281C122.109 27.6875 119.508 29.8672 117.68 29.8672C116.945 29.8672 116.414 29.5859 116.086 29.0234C115.773 28.4609 115.617 27.625 115.617 26.5156C115.617 25.0156 115.805 23.3984 116.18 21.6641ZM117.914 15.9453C116.523 16.4141 114.891 17.1719 113.016 18.2188C111.141 19.25 110.008 19.9609 109.617 20.3516C109.273 20.6641 108.969 21.25 108.703 22.1094C108.438 22.9688 108.305 23.6172 108.305 24.0547C108.305 24.3203 108.383 24.5391 108.539 24.7109C108.695 24.8828 108.891 24.9688 109.125 24.9688C109.344 24.9688 109.594 24.875 109.875 24.6875C110.156 24.5 110.602 24.1328 111.211 23.5859C111.836 23.0391 112.242 22.6875 112.43 22.5312C112.695 22.2969 113.281 21.7969 114.188 21.0312C115.109 20.25 115.781 19.6406 116.203 19.2031C116.625 18.7656 116.984 18.2812 117.281 17.75C117.578 17.2031 117.789 16.6016 117.914 15.9453ZM137.494 11.1406C137.103 11.1406 136.728 10.9922 136.369 10.6953C136.025 10.3984 135.853 10.0234 135.853 9.57031C135.853 8.88281 136.181 8.11719 136.838 7.27344C137.494 6.42969 138.173 6.00781 138.877 6.00781C139.345 6.00781 139.736 6.15625 140.048 6.45312C140.361 6.73438 140.517 7.14844 140.517 7.69531C140.517 8.36719 140.197 9.10938 139.556 9.92188C138.916 10.7344 138.228 11.1406 137.494 11.1406ZM139.088 21.6172V23.3281C137.572 25.2812 136.158 26.7578 134.845 27.7578C133.533 28.7422 132.416 29.2344 131.494 29.2344C130.213 29.2344 129.259 28.5625 128.634 27.2188C128.009 25.875 127.697 24.4062 127.697 22.8125C127.697 22.2031 127.759 21.625 127.884 21.0781C128.009 20.5156 128.158 20.0547 128.33 19.6953C128.502 19.3359 128.822 18.7734 129.291 18.0078C131.509 14.5547 133.541 12.8281 135.384 12.8281C136.338 12.8281 136.814 13.1953 136.814 13.9297C136.814 14.4297 136.502 15.2109 135.877 16.2734C135.267 17.3359 134.72 18.0938 134.236 18.5469C132.877 19.8594 131.986 20.7734 131.564 21.2891C131.158 21.8047 130.955 22.3906 130.955 23.0469C130.955 23.6094 131.166 24.0781 131.588 24.4531C132.009 24.8281 132.556 25.0156 133.228 25.0156C133.963 25.0156 134.767 24.75 135.642 24.2188C136.533 23.6719 137.681 22.8047 139.088 21.6172ZM152.011 21.6641C150.636 23.2266 149.402 24.5547 148.308 25.6484C147.23 26.7422 146.347 27.5625 145.659 28.1094C144.988 28.6406 144.527 28.9062 144.277 28.9062C143.87 28.9062 143.409 28.5781 142.894 27.9219C142.394 27.2656 141.964 26.4297 141.605 25.4141C141.245 24.3984 141.066 23.3672 141.066 22.3203C141.066 20.8047 141.8 19.2812 143.269 17.75C144.738 16.2031 146.409 14.9219 148.284 13.9062C150.159 12.8906 151.566 12.3828 152.503 12.3828C153.269 12.3828 154.019 12.8672 154.753 13.8359C155.956 11.3203 157.097 9.08594 158.175 7.13281C159.269 5.17969 160.183 3.72656 160.917 2.77344C161.652 1.82031 162.175 1.34375 162.488 1.34375C162.831 1.34375 163.144 1.51562 163.425 1.85938C163.722 2.1875 163.87 2.5625 163.87 2.98438C163.87 3.79688 163.277 5.19531 162.089 7.17969C160.902 9.14844 159.73 11.0703 158.573 12.9453C157.417 14.8203 156.425 16.6719 155.597 18.5C154.769 20.3125 154.355 21.9922 154.355 23.5391C154.355 24.9453 154.808 25.6484 155.714 25.6484C156.261 25.6484 156.948 25.3438 157.777 24.7344C158.605 24.1094 159.784 23.0703 161.316 21.6172V23.3281C157.941 27.6875 155.339 29.8672 153.511 29.8672C152.777 29.8672 152.245 29.5859 151.917 29.0234C151.605 28.4609 151.448 27.625 151.448 26.5156C151.448 25.0156 151.636 23.3984 152.011 21.6641ZM153.745 15.9453C152.355 16.4141 150.722 17.1719 148.847 18.2188C146.972 19.25 145.839 19.9609 145.448 20.3516C145.105 20.6641 144.8 21.25 144.534 22.1094C144.269 22.9688 144.136 23.6172 144.136 24.0547C144.136 24.3203 144.214 24.5391 144.37 24.7109C144.527 24.8828 144.722 24.9688 144.956 24.9688C145.175 24.9688 145.425 24.875 145.706 24.6875C145.988 24.5 146.433 24.1328 147.042 23.5859C147.667 23.0391 148.073 22.6875 148.261 22.5312C148.527 22.2969 149.113 21.7969 150.019 21.0312C150.941 20.25 151.613 19.6406 152.034 19.2031C152.456 18.7656 152.816 18.2812 153.113 17.75C153.409 17.2031 153.62 16.6016 153.745 15.9453Z" fill="#026EB6"/>
</svg>
